<svg viewBox="0 0 206.185 206.185" style="enable-background:new 0 0 206.185 206.185" xml:space="preserve" xmlns="http://www.w3.org/2000/svg"><path d="M168.395 92.03c-3.313 0-6.574.492-9.687 1.44V51.833a7.5 7.5 0 0 0-7.5-7.5h-38.232a33.273 33.273 0 0 0 1.888-11.104C114.864 14.906 99.958 0 81.635 0s-33.23 14.906-33.23 33.229c0 3.851.646 7.592 1.888 11.104H12.061a7.5 7.5 0 0 0-7.5 7.5v49.721a7.501 7.501 0 0 0 10.423 6.906 18.096 18.096 0 0 1 7.097-1.431c10.052 0 18.23 8.178 18.23 18.229 0 10.051-8.178 18.229-18.23 18.229a18.1 18.1 0 0 1-7.097-1.431 7.499 7.499 0 0 0-10.423 6.906v49.721a7.5 7.5 0 0 0 7.5 7.5h45.707a7.5 7.5 0 0 0 6.776-10.719 18.114 18.114 0 0 1-1.139-6.341c0-10.052 8.178-18.229 18.229-18.229s18.229 8.178 18.229 18.229c0 2.332-.439 4.609-1.305 6.77a7.501 7.501 0 0 0 6.962 10.29h45.687a7.5 7.5 0 0 0 7.5-7.5v-41.636a33.229 33.229 0 0 0 9.687 1.44c18.322 0 33.229-14.906 33.229-33.229S186.718 92.03 168.395 92.03z" style="fill:#f56d91;fill-opacity:1"/></svg>